<?xml version="1.0" encoding="utf-8"?>
<!-- Generator: Adobe Illustrator 25.2.3, SVG Export Plug-In . SVG Version: 6.00 Build 0)  -->
<svg version="1.1" id="레이어_1" xmlns="http://www.w3.org/2000/svg" xmlns:xlink="http://www.w3.org/1999/xlink" x="0px"
		y="0px" viewBox="0 0 200 200" style="enable-background:new 0 0 200 200;" xml:space="preserve">
<style type="text/css">
	.st0{opacity:0.5;fill:none;}
	.st1{fill:none;stroke:#FFFFFF;stroke-width:1.6;stroke-linecap:round;stroke-linejoin:round;stroke-miterlimit:10;}
	.st2{fill:none;stroke:#040000;stroke-width:1.6;stroke-linecap:round;stroke-miterlimit:10;}
</style>
<g id="오른쪽_방향">
	<rect class="st0" width="35" height="56"/>
	<rect x="2" y="2" class="st0" width="31" height="52"/>
	<polyline class="st1" points="28,3 6,28 28,53 	"/>
</g>
<g id="왼쪽_방향">
	<rect x="40" y="0" transform="matrix(-1 -8.978031e-11 8.978031e-11 -1 115 56)" class="st0" width="35" height="56"/>
	<rect x="42" y="2" transform="matrix(-1 -8.980518e-11 8.980518e-11 -1 115 56)" class="st0" width="31" height="52"/>
	<polyline class="st1" points="47,53 69,28 47,3 	"/>
</g>
<g id="메뉴_바">
	<rect x="80" class="st0" width="25" height="25"/>
	<rect x="82" y="2" class="st0" width="21" height="21"/>
	<line class="st2" x1="84" y1="4.5" x2="101" y2="4.5"/>
	<line class="st2" x1="84" y1="12.5" x2="101" y2="12.5"/>
	<line class="st2" x1="84" y1="20.5" x2="101" y2="20.5"/>
</g>
</svg>
