<?xml version="1.0" encoding="utf-8"?>
<!-- Generator: Adobe Illustrator 25.2.3, SVG Export Plug-In . SVG Version: 6.00 Build 0)  -->
<svg version="1.1" id="레이어_1" xmlns="http://www.w3.org/2000/svg" xmlns:xlink="http://www.w3.org/1999/xlink" x="0px"
	 y="0px" viewBox="0 0 500 500" style="enable-background:new 0 0 500 500;" xml:space="preserve">
<style type="text/css">
	.st0{opacity:0;}
	.st1{fill:none;stroke:#767777;stroke-linecap:round;stroke-linejoin:round;stroke-miterlimit:10;}
	.st2{opacity:0;fill:#767777;}
	.st3{opacity:0;fill:#767777;stroke:#040000;stroke-linecap:round;stroke-linejoin:round;stroke-miterlimit:10;}
	.st4{fill:none;stroke:#040000;stroke-linecap:round;stroke-linejoin:round;stroke-miterlimit:10;}
	.st5{opacity:0.4;fill:none;}
	.st6{fill:none;stroke:#040000;stroke-width:1.6;stroke-linecap:round;stroke-miterlimit:10;}
</style>
<g>
	<rect x="34.38" y="2.66" class="st0" width="30" height="30"/>
	<g>
		<polyline class="st1" points="53.89,5.66 39.87,17.66 53.89,29.66 		"/>
		<polyline class="st1" points="58.89,5.66 44.87,17.66 58.89,29.66 		"/>
	</g>
</g>
<g>
	<rect x="2" y="2" transform="matrix(-1 -1.224647e-16 1.224647e-16 -1 34 34)" class="st2" width="30" height="30"/>
	<polyline class="st1" points="25.01,5 8.99,17 25.01,29 	"/>
</g>
<g>
	<rect x="2" y="34" class="st3" width="30" height="30"/>
	<polyline class="st4" points="8.99,37 25.01,49 8.99,61 	"/>
</g>
<g>
	
		<rect x="34.38" y="35.66" transform="matrix(-1 -1.224647e-16 1.224647e-16 -1 98.7586 101.3103)" class="st0" width="30" height="30"/>
	<g>
		<polyline class="st1" points="44.87,38.66 58.89,50.66 44.87,62.66 		"/>
		<polyline class="st1" points="39.87,38.66 53.89,50.66 39.87,62.66 		"/>
	</g>
</g>
<g>
	<rect x="2" y="66" class="st5" width="25" height="25"/>
	<g>
		<line class="st6" x1="6" y1="70" x2="23" y2="70"/>
		<line class="st6" x1="6" y1="78" x2="23" y2="78"/>
		<line class="st6" x1="6" y1="86" x2="23" y2="86"/>
	</g>
</g>
</svg>
